<svg viewBox="0 0 660 120" xmlns="http://www.w3.org/2000/svg">
  <g>
    <rect x="0" y="50" width="110" height="45" rx="8" ry="8"
          fill="#3c3836" stroke="#fe8019" stroke-width="2"/>
    <text x="55.0" y="77.5"
          fill="#ebdbb2" text-anchor="middle" font-family="monospace" font-size="13">Stego Image</text>
  </g>
  <g>
    <defs>
      <marker id="arrow1" markerWidth="10" markerHeight="7" refX="9" refY="3.5" orient="auto">
        <polygon points="0 0, 10 3.5, 0 7" fill="#fabd2f"/>
      </marker>
    </defs>
    <line x1="110" y1="73" x2="140" y2="73"
          stroke="#fabd2f" stroke-width="2"  marker-end="url(#arrow1)"/>
  </g>
  <g>
    <rect x="150" y="50" width="100" height="45" rx="8" ry="8"
          fill="#3c3836" stroke="#fabd2f" stroke-width="2"/>
    <text x="200.0" y="77.5"
          fill="#ebdbb2" text-anchor="middle" font-family="monospace" font-size="13">LSB Extract</text>
  </g>
  <g>
    <defs>
      <marker id="arrow2" markerWidth="10" markerHeight="7" refX="9" refY="3.5" orient="auto">
        <polygon points="0 0, 10 3.5, 0 7" fill="#fabd2f"/>
      </marker>
    </defs>
    <line x1="250" y1="73" x2="280" y2="73"
          stroke="#fabd2f" stroke-width="2"  marker-end="url(#arrow2)"/>
  </g>
  <g>
    <rect x="290" y="50" width="90" height="45" rx="8" ry="8"
          fill="#3c3836" stroke="#b8bb26" stroke-width="2"/>
    <text x="335.0" y="77.5"
          fill="#ebdbb2" text-anchor="middle" font-family="monospace" font-size="13">ML-KEM</text>
  </g>
  <g>
    <defs>
      <marker id="arrow3" markerWidth="10" markerHeight="7" refX="9" refY="3.5" orient="auto">
        <polygon points="0 0, 10 3.5, 0 7" fill="#fabd2f"/>
      </marker>
    </defs>
    <line x1="380" y1="73" x2="410" y2="73"
          stroke="#fabd2f" stroke-width="2"  marker-end="url(#arrow3)"/>
  </g>
  <g>
    <rect x="420" y="50" width="90" height="45" rx="8" ry="8"
          fill="#3c3836" stroke="#d3869b" stroke-width="2"/>
    <text x="465.0" y="77.5"
          fill="#ebdbb2" text-anchor="middle" font-family="monospace" font-size="13">AES-256</text>
  </g>
  <g>
    <defs>
      <marker id="arrow4" markerWidth="10" markerHeight="7" refX="9" refY="3.5" orient="auto">
        <polygon points="0 0, 10 3.5, 0 7" fill="#fabd2f"/>
      </marker>
    </defs>
    <line x1="510" y1="73" x2="540" y2="73"
          stroke="#fabd2f" stroke-width="2"  marker-end="url(#arrow4)"/>
  </g>
  <g>
    <rect x="550" y="50" width="100" height="45" rx="8" ry="8"
          fill="#3c3836" stroke="#8ec07c" stroke-width="2"/>
    <text x="600.0" y="77.5"
          fill="#ebdbb2" text-anchor="middle" font-family="monospace" font-size="13">Message</text>
  </g>

  <text x="335" y="12" fill="#ebdbb2" text-anchor="middle" font-family="monospace" font-size="11" opacity="0.6">private key</text>
  <g>
    <defs>
      <marker id="arrow5" markerWidth="10" markerHeight="7" refX="9" refY="3.5" orient="auto">
        <polygon points="0 0, 10 3.5, 0 7" fill="#fabd2f"/>
      </marker>
    </defs>
    <line x1="335" y1="18" x2="335" y2="50"
          stroke="#fabd2f" stroke-width="2" stroke-dasharray="6,4" marker-end="url(#arrow5)"/>
  </g>
</svg>