<svg viewBox="0 0 660 110" xmlns="http://www.w3.org/2000/svg">
  <g>
    <rect x="0" y="35" width="100" height="45" rx="8" ry="8"
          fill="#3c3836" stroke="#8ec07c" stroke-width="2"/>
    <text x="50.0" y="62.5"
          fill="#ebdbb2" text-anchor="middle" font-family="monospace" font-size="13">Message</text>
  </g>
  <g>
    <defs>
      <marker id="arrow1" markerWidth="10" markerHeight="7" refX="9" refY="3.5" orient="auto">
        <polygon points="0 0, 10 3.5, 0 7" fill="#fabd2f"/>
      </marker>
    </defs>
    <line x1="100" y1="58" x2="130" y2="58"
          stroke="#fabd2f" stroke-width="2"  marker-end="url(#arrow1)"/>
  </g>
  <g>
    <rect x="140" y="35" width="90" height="45" rx="8" ry="8"
          fill="#3c3836" stroke="#b8bb26" stroke-width="2"/>
    <text x="185.0" y="62.5"
          fill="#ebdbb2" text-anchor="middle" font-family="monospace" font-size="13">ML-KEM</text>
  </g>
  <g>
    <defs>
      <marker id="arrow2" markerWidth="10" markerHeight="7" refX="9" refY="3.5" orient="auto">
        <polygon points="0 0, 10 3.5, 0 7" fill="#fabd2f"/>
      </marker>
    </defs>
    <line x1="230" y1="58" x2="260" y2="58"
          stroke="#fabd2f" stroke-width="2"  marker-end="url(#arrow2)"/>
  </g>
  <g>
    <rect x="270" y="35" width="90" height="45" rx="8" ry="8"
          fill="#3c3836" stroke="#d3869b" stroke-width="2"/>
    <text x="315.0" y="62.5"
          fill="#ebdbb2" text-anchor="middle" font-family="monospace" font-size="13">AES-256</text>
  </g>
  <g>
    <defs>
      <marker id="arrow3" markerWidth="10" markerHeight="7" refX="9" refY="3.5" orient="auto">
        <polygon points="0 0, 10 3.5, 0 7" fill="#fabd2f"/>
      </marker>
    </defs>
    <line x1="360" y1="58" x2="390" y2="58"
          stroke="#fabd2f" stroke-width="2"  marker-end="url(#arrow3)"/>
  </g>
  <g>
    <rect x="400" y="35" width="100" height="45" rx="8" ry="8"
          fill="#3c3836" stroke="#fabd2f" stroke-width="2"/>
    <text x="450.0" y="62.5"
          fill="#ebdbb2" text-anchor="middle" font-family="monospace" font-size="13">LSB Embed</text>
  </g>
  <g>
    <defs>
      <marker id="arrow4" markerWidth="10" markerHeight="7" refX="9" refY="3.5" orient="auto">
        <polygon points="0 0, 10 3.5, 0 7" fill="#fabd2f"/>
      </marker>
    </defs>
    <line x1="500" y1="58" x2="530" y2="58"
          stroke="#fabd2f" stroke-width="2"  marker-end="url(#arrow4)"/>
  </g>
  <g>
    <rect x="540" y="35" width="110" height="45" rx="8" ry="8"
          fill="#3c3836" stroke="#fe8019" stroke-width="2"/>
    <text x="595.0" y="62.5"
          fill="#ebdbb2" text-anchor="middle" font-family="monospace" font-size="13">Stego Image</text>
  </g>

  <text x="185" y="12" fill="#ebdbb2" text-anchor="middle" font-family="monospace" font-size="11" opacity="0.6">public key</text>
  <g>
    <defs>
      <marker id="arrow5" markerWidth="10" markerHeight="7" refX="9" refY="3.5" orient="auto">
        <polygon points="0 0, 10 3.5, 0 7" fill="#fabd2f"/>
      </marker>
    </defs>
    <line x1="185" y1="16" x2="185" y2="35"
          stroke="#fabd2f" stroke-width="2" stroke-dasharray="6,4" marker-end="url(#arrow5)"/>
  </g>
</svg>