<svg viewBox="0 0 600 100" xmlns="http://www.w3.org/2000/svg">
  <g>
    <rect x="0" y="27" width="105" height="45" rx="8" ry="8"
          fill="#3c3836" stroke="#fe8019" stroke-width="2"/>
    <text x="52.5" y="54.5"
          fill="#ebdbb2" text-anchor="middle" font-family="monospace" font-size="13">Stego Image</text>
  </g>
  <g>
    <defs>
      <marker id="arrow1" markerWidth="10" markerHeight="7" refX="9" refY="3.5" orient="auto">
        <polygon points="0 0, 10 3.5, 0 7" fill="#fabd2f"/>
      </marker>
    </defs>
    <line x1="105" y1="50" x2="130" y2="50"
          stroke="#fabd2f" stroke-width="2"  marker-end="url(#arrow1)"/>
  </g>
  <g>
    <rect x="140" y="27" width="95" height="45" rx="8" ry="8"
          fill="#3c3836" stroke="#fabd2f" stroke-width="2"/>
    <text x="187.5" y="54.5"
          fill="#ebdbb2" text-anchor="middle" font-family="monospace" font-size="13">LSB Extract</text>
  </g>
  <g>
    <defs>
      <marker id="arrow2" markerWidth="10" markerHeight="7" refX="9" refY="3.5" orient="auto">
        <polygon points="0 0, 10 3.5, 0 7" fill="#fabd2f"/>
      </marker>
    </defs>
    <line x1="235" y1="50" x2="260" y2="50"
          stroke="#fabd2f" stroke-width="2"  marker-end="url(#arrow2)"/>
  </g>
  <g>
    <rect x="270" y="27" width="85" height="45" rx="8" ry="8"
          fill="#3c3836" stroke="#b8bb26" stroke-width="2"/>
    <text x="312.5" y="54.5"
          fill="#ebdbb2" text-anchor="middle" font-family="monospace" font-size="13">ML-KEM</text>
  </g>
  <g>
    <defs>
      <marker id="arrow3" markerWidth="10" markerHeight="7" refX="9" refY="3.5" orient="auto">
        <polygon points="0 0, 10 3.5, 0 7" fill="#fabd2f"/>
      </marker>
    </defs>
    <line x1="355" y1="50" x2="380" y2="50"
          stroke="#fabd2f" stroke-width="2"  marker-end="url(#arrow3)"/>
  </g>
  <g>
    <rect x="390" y="27" width="105" height="45" rx="8" ry="8"
          fill="#3c3836" stroke="#d3869b" stroke-width="2"/>
    <text x="442.5" y="54.5"
          fill="#ebdbb2" text-anchor="middle" font-family="monospace" font-size="13">AES-256-GCM</text>
  </g>
  <g>
    <defs>
      <marker id="arrow4" markerWidth="10" markerHeight="7" refX="9" refY="3.5" orient="auto">
        <polygon points="0 0, 10 3.5, 0 7" fill="#fabd2f"/>
      </marker>
    </defs>
    <line x1="495" y1="50" x2="520" y2="50"
          stroke="#fabd2f" stroke-width="2"  marker-end="url(#arrow4)"/>
  </g>
  <g>
    <rect x="530" y="27" width="85" height="45" rx="8" ry="8"
          fill="#3c3836" stroke="#8ec07c" stroke-width="2"/>
    <text x="572.5" y="54.5"
          fill="#ebdbb2" text-anchor="middle" font-family="monospace" font-size="13">Message</text>
  </g>

  <text x="312" y="15" fill="#ebdbb2" text-anchor="middle" font-family="monospace" font-size="11" opacity="0.6">private key</text>
  <g>
    <defs>
      <marker id="arrow5" markerWidth="10" markerHeight="7" refX="9" refY="3.5" orient="auto">
        <polygon points="0 0, 10 3.5, 0 7" fill="#fabd2f"/>
      </marker>
    </defs>
    <line x1="312" y1="18" x2="312" y2="27"
          stroke="#fabd2f" stroke-width="2" stroke-dasharray="6,4" marker-end="url(#arrow5)"/>
  </g>
</svg>