<svg viewBox="0 0 500 180" xmlns="http://www.w3.org/2000/svg">
  <!-- Title -->
  <text x="250" y="20" fill="#ebdbb2" text-anchor="middle" font-family="monospace" font-size="13">LSB Embedding Example</text>

  <!-- Original byte section -->
  <text x="20" y="55" fill="#ebdbb2" font-family="monospace" font-size="11">original pixel (red = 180):</text>
  <rect x="230" y="40" width="26" height="26" rx="3" fill="#3c3836" stroke="#8ec07c" stroke-width="2"/>
  <text x="243" y="58" fill="#ebdbb2" text-anchor="middle" font-family="monospace" font-size="14">1</text>
  <rect x="260" y="40" width="26" height="26" rx="3" fill="#3c3836" stroke="#8ec07c" stroke-width="2"/>
  <text x="273" y="58" fill="#ebdbb2" text-anchor="middle" font-family="monospace" font-size="14">0</text>
  <rect x="290" y="40" width="26" height="26" rx="3" fill="#3c3836" stroke="#8ec07c" stroke-width="2"/>
  <text x="303" y="58" fill="#ebdbb2" text-anchor="middle" font-family="monospace" font-size="14">1</text>
  <rect x="320" y="40" width="26" height="26" rx="3" fill="#3c3836" stroke="#8ec07c" stroke-width="2"/>
  <text x="333" y="58" fill="#ebdbb2" text-anchor="middle" font-family="monospace" font-size="14">1</text>
  <rect x="350" y="40" width="26" height="26" rx="3" fill="#3c3836" stroke="#8ec07c" stroke-width="2"/>
  <text x="363" y="58" fill="#ebdbb2" text-anchor="middle" font-family="monospace" font-size="14">0</text>
  <rect x="380" y="40" width="26" height="26" rx="3" fill="#3c3836" stroke="#8ec07c" stroke-width="2"/>
  <text x="393" y="58" fill="#ebdbb2" text-anchor="middle" font-family="monospace" font-size="14">1</text>
  <rect x="410" y="40" width="26" height="26" rx="3" fill="#3c3836" stroke="#8ec07c" stroke-width="2"/>
  <text x="423" y="58" fill="#ebdbb2" text-anchor="middle" font-family="monospace" font-size="14">0</text>
  <rect x="440" y="40" width="26" height="26" rx="3" fill="#3c3836" stroke="#fe8019" stroke-width="2"/>
  <text x="453" y="58" fill="#ebdbb2" text-anchor="middle" font-family="monospace" font-size="14">0</text>
  <text x="457" y="75" fill="#fe8019" font-family="monospace" font-size="9">LSB</text>

  <!-- Arrow and secret bit -->
  <text x="20" y="100" fill="#ebdbb2" font-family="monospace" font-size="11">secret bit to hide:</text>
  <rect x="230" y="85" width="26" height="26" rx="3" fill="#fabd2f" stroke="#fabd2f" stroke-width="2"/>
  <text x="243" y="103" fill="#1d2021" text-anchor="middle" font-family="monospace" font-size="14" font-weight="bold">1</text>

  <!-- Arrow -->
  <path d="M 280 98 L 350 98" stroke="#fabd2f" stroke-width="2" fill="none"/>
  <polygon points="350,98 340,93 340,103" fill="#fabd2f"/>
  <text x="315" y="90" fill="#ebdbb2" font-family="monospace" font-size="9" opacity="0.7">replace</text>

  <!-- Modified byte section -->
  <text x="20" y="145" fill="#ebdbb2" font-family="monospace" font-size="11">modified pixel (red = 181):</text>
  <rect x="230" y="130" width="26" height="26" rx="3" fill="#3c3836" stroke="#8ec07c" stroke-width="2"/>
  <text x="243" y="148" fill="#ebdbb2" text-anchor="middle" font-family="monospace" font-size="14">1</text>
  <rect x="260" y="130" width="26" height="26" rx="3" fill="#3c3836" stroke="#8ec07c" stroke-width="2"/>
  <text x="273" y="148" fill="#ebdbb2" text-anchor="middle" font-family="monospace" font-size="14">0</text>
  <rect x="290" y="130" width="26" height="26" rx="3" fill="#3c3836" stroke="#8ec07c" stroke-width="2"/>
  <text x="303" y="148" fill="#ebdbb2" text-anchor="middle" font-family="monospace" font-size="14">1</text>
  <rect x="320" y="130" width="26" height="26" rx="3" fill="#3c3836" stroke="#8ec07c" stroke-width="2"/>
  <text x="333" y="148" fill="#ebdbb2" text-anchor="middle" font-family="monospace" font-size="14">1</text>
  <rect x="350" y="130" width="26" height="26" rx="3" fill="#3c3836" stroke="#8ec07c" stroke-width="2"/>
  <text x="363" y="148" fill="#ebdbb2" text-anchor="middle" font-family="monospace" font-size="14">0</text>
  <rect x="380" y="130" width="26" height="26" rx="3" fill="#3c3836" stroke="#8ec07c" stroke-width="2"/>
  <text x="393" y="148" fill="#ebdbb2" text-anchor="middle" font-family="monospace" font-size="14">1</text>
  <rect x="410" y="130" width="26" height="26" rx="3" fill="#3c3836" stroke="#8ec07c" stroke-width="2"/>
  <text x="423" y="148" fill="#ebdbb2" text-anchor="middle" font-family="monospace" font-size="14">0</text>
  <rect x="440" y="130" width="26" height="26" rx="3" fill="#3c3836" stroke="#fabd2f" stroke-width="2"/>
  <text x="453" y="148" fill="#ebdbb2" text-anchor="middle" font-family="monospace" font-size="14">1</text>
  <text x="457" y="165" fill="#fabd2f" font-family="monospace" font-size="9">modified</text>

  <!-- Explanation -->
  <text x="250" y="175" fill="#ebdbb2" text-anchor="middle" font-family="monospace" font-size="10" opacity="0.6">changing 180 → 181 is invisible to the human eye</text>
</svg>