<svg viewBox="0 0 530 120" xmlns="http://www.w3.org/2000/svg">
  <g>
    <rect x="0" y="0" width="115" height="40" rx="8" ry="8"
          fill="#3c3836" stroke="#8ec07c" stroke-width="2"/>
    <text x="57.5" y="25.0"
          fill="#ebdbb2" text-anchor="middle" font-family="monospace" font-size="13">Shared Secret</text>
  </g>
  <g>
    <defs>
      <marker id="arrow1" markerWidth="10" markerHeight="7" refX="9" refY="3.5" orient="auto">
        <polygon points="0 0, 10 3.5, 0 7" fill="#fabd2f"/>
      </marker>
    </defs>
    <line x1="115" y1="20" x2="145" y2="20"
          stroke="#fabd2f" stroke-width="2"  marker-end="url(#arrow1)"/>
  </g>
  <g>
    <rect x="155" y="0" width="70" height="40" rx="8" ry="8"
          fill="#3c3836" stroke="#b8bb26" stroke-width="2"/>
    <text x="190.0" y="25.0"
          fill="#ebdbb2" text-anchor="middle" font-family="monospace" font-size="13">HKDF</text>
  </g>
  <g>
    <defs>
      <marker id="arrow2" markerWidth="10" markerHeight="7" refX="9" refY="3.5" orient="auto">
        <polygon points="0 0, 10 3.5, 0 7" fill="#fabd2f"/>
      </marker>
    </defs>
    <line x1="225" y1="20" x2="255" y2="50"
          stroke="#fabd2f" stroke-width="2"  marker-end="url(#arrow2)"/>
  </g>

  <g>
    <rect x="0" y="75" width="90" height="40" rx="8" ry="8"
          fill="#3c3836" stroke="#fabd2f" stroke-width="2"/>
    <text x="45.0" y="100.0"
          fill="#ebdbb2" text-anchor="middle" font-family="monospace" font-size="13">Message</text>
  </g>
  <g>
    <defs>
      <marker id="arrow3" markerWidth="10" markerHeight="7" refX="9" refY="3.5" orient="auto">
        <polygon points="0 0, 10 3.5, 0 7" fill="#fabd2f"/>
      </marker>
    </defs>
    <line x1="90" y1="95" x2="255" y2="65"
          stroke="#fabd2f" stroke-width="2"  marker-end="url(#arrow3)"/>
  </g>

  <g>
    <rect x="265" y="40" width="115" height="45" rx="8" ry="8"
          fill="#3c3836" stroke="#d3869b" stroke-width="2"/>
    <text x="322.5" y="67.5"
          fill="#ebdbb2" text-anchor="middle" font-family="monospace" font-size="13">AES-256-GCM</text>
  </g>
  <g>
    <defs>
      <marker id="arrow4" markerWidth="10" markerHeight="7" refX="9" refY="3.5" orient="auto">
        <polygon points="0 0, 10 3.5, 0 7" fill="#fabd2f"/>
      </marker>
    </defs>
    <line x1="380" y1="62" x2="410" y2="62"
          stroke="#fabd2f" stroke-width="2"  marker-end="url(#arrow4)"/>
  </g>
  <g>
    <rect x="420" y="42" width="100" height="40" rx="8" ry="8"
          fill="#3c3836" stroke="#fe8019" stroke-width="2"/>
    <text x="470.0" y="67.0"
          fill="#ebdbb2" text-anchor="middle" font-family="monospace" font-size="13">Ciphertext</text>
  </g>
</svg>